<svg xmlns="http://www.w3.org/2000/svg" version="1.1" xmlns:xlink="http://www.w3.org/1999/xlink" xmlns:svgjs="http://svgjs.com/svgjs" width="1440" height="560" preserveAspectRatio="none" viewBox="0 0 1440 560"><g mask="url(&quot;#SvgjsMask1293&quot;)" fill="none"><rect width="1440" height="560" x="0" y="0" fill="#0e2a47"></rect><path d="M115.92368871255255-61.606860995876104L-43.853806025033236-9.692005940884933 8.061049029957928 150.08548879670084 167.8385437675437 98.17063374170968z" fill="rgba(28, 83, 142, 0.4)" class="triangle-float3"></path><path d="M187.00940803368883 72.08593263956593L83.57828017897822-60.29987396636335 54.62360142775955 175.51706049427654z" fill="rgba(28, 83, 142, 0.4)" class="triangle-float3"></path><path d="M28.557056926496266 185.10889627630874L169.4537123413275 93.60953839378422-62.942300956028255 44.21224086147751z" fill="rgba(28, 83, 142, 0.4)" class="triangle-float3"></path><path d="M1345.4089038598497 182.22578786018298L1493.7440994601495 103.35456531215334 1266.53768131182 33.89059225988325z" fill="rgba(28, 83, 142, 0.4)" class="triangle-float1"></path><path d="M1497.1403113750619 123.98155752979068L1456.4974329143176-39.02812448457672 1334.1306293606945 164.62443599053486z" fill="rgba(28, 83, 142, 0.4)" class="triangle-float2"></path><path d="M1390.9079937843965 187.8123736380502L1503.3219356526847 62.964042957847965 1266.0596631041942 75.398431769762z" fill="rgba(28, 83, 142, 0.4)" class="triangle-float3"></path><path d="M-29.43252498157402 451.0266806386307L-48.88112088027022 561.325148975998 126.29087957512883 535.3488086553587z" fill="rgba(28, 83, 142, 0.4)" class="triangle-float3"></path><path d="M-72.61028696969888 533.6920243128341L69.8617931845807 622.7184607040124 158.88822957575908 480.24638054973286 16.416149421479503 391.2199441585545z" fill="rgba(28, 83, 142, 0.4)" class="triangle-float1"></path><path d="M29.766,538.806C51.566,539.205,72.315,527.496,82.609,508.275C92.408,489.979,87.326,468.499,77.092,450.442C66.68,432.071,50.873,415.641,29.766,415.035C7.773,414.403,-12.02,428.243,-22.517,447.58C-32.553,466.068,-30.29,488.149,-19.83,506.4C-9.305,524.764,8.604,538.419,29.766,538.806" fill="rgba(28, 83, 142, 0.4)" class="triangle-float3"></path><path d="M1253.6317903110405 483.3517040723024L1352.379712696176 619.2665591272936 1488.2945677511673 520.518636742158 1389.5466453660317 384.60378168716693z" fill="rgba(28, 83, 142, 0.4)" class="triangle-float3"></path><path d="M1382.954,574.393C1409.603,575.195,1435.218,563.848,1450.025,541.677C1466.737,516.654,1476.625,483.593,1460.607,458.121C1445.199,433.619,1411.796,432.6,1382.954,435.023C1358.955,437.04,1337.235,448.748,1325.032,469.512C1312.655,490.572,1310.719,516.456,1322.529,537.84C1334.726,559.926,1357.735,573.634,1382.954,574.393" fill="rgba(28, 83, 142, 0.4)" class="triangle-float2"></path><path d="M1349.858,518.828C1367.659,518.626,1385.116,510.767,1393.718,495.181C1402.074,480.041,1397.869,462.103,1389.522,446.958C1380.803,431.138,1367.917,415.194,1349.858,415.6C1332.214,415.997,1321.864,433.319,1313.171,448.677C1304.662,463.711,1296.233,480.889,1304.239,496.197C1312.671,512.319,1331.665,519.035,1349.858,518.828" fill="rgba(28, 83, 142, 0.4)" class="triangle-float3"></path></g><defs><mask id="SvgjsMask1293"><rect width="1440" height="560" fill="#ffffff"></rect></mask><style>
            @keyframes float1 {
                0%{transform: translate(0, 0)}
                50%{transform: translate(-10px, 0)}
                100%{transform: translate(0, 0)}
            }

            .triangle-float1 {
                animation: float1 5s infinite;
            }

            @keyframes float2 {
                0%{transform: translate(0, 0)}
                50%{transform: translate(-5px, -5px)}
                100%{transform: translate(0, 0)}
            }

            .triangle-float2 {
                animation: float2 4s infinite;
            }

            @keyframes float3 {
                0%{transform: translate(0, 0)}
                50%{transform: translate(0, -10px)}
                100%{transform: translate(0, 0)}
            }

            .triangle-float3 {
                animation: float3 6s infinite;
            }
        </style></defs></svg>